<svg xmlns="http://www.w3.org/2000/svg" viewBox="0 0 36 36" id="udemy">
  <path fill="#EFEFEF" d="M7.678 5.564C5.873 12.241 1.174 15.891.304 19.109s-.847 10.475 13.955 14.477 19.432-4.501 20.388-8.041C39.128 8.973 10.875-6.262 7.678 5.564z"></path>
  <path fill="#A4AFC1" d="M16.043 5.276h2v1h-2zM10.293 5.276h2v1h-2zM13.793 1.776h1v2h-1zM29.25 16.137c-.827 0-1.5-.673-1.5-1.5s.673-1.5 1.5-1.5 1.5.673 1.5 1.5-.673 1.5-1.5 1.5zm0-2c-.275 0-.5.225-.5.5s.225.5.5.5.5-.225.5-.5-.225-.5-.5-.5z"></path>
  <path fill="#2FDF84" d="M28.856 19.51a.623.623 0 0 0-.259-.127l-.004-.001c-.563.557-1.266 1.142-1.875 1.535a1.844 1.844 0 0 1-.891.274c-.553 0-.787-.502-.853-1.316a47.114 47.114 0 0 1-.159-4.415c0-2.063-.488-3.469-1.762-3.579l-.169-.009c-.778 0-1.162.393-1.659 1.389-.431.859-1.097 2.102-2.325 4.477a31.629 31.629 0 0 1-3.281 5.099c-.291.347-.515.584-.731.731a.76.76 0 0 1-.411.128h-.001c-.403 0-.703-.329-.797-1.106a4.704 4.704 0 0 1-.037-.603v-.027c0-1.599.619-4.203 1.687-8.022.778-2.787.45-4.687-1.256-4.687h-.028c-.384 0-.703.146-1.012.384-.309.228-.609.74-.9 1.425-.319.768-2.269 4.596-5.381 6.579-.038.74.394 1.489 1.284 1.581.797.073 1.369-.256 2.1-.74l-.15.667c-.156.595-.32 1.399-.448 2.215l-.021.161c-.431 3.838 1.378 5.729 3.506 5.729.356 0 .712-.046 1.059-.137 2.344-.576 4.593-3.207 7.265-9.256a17.257 17.257 0 0 0-.008 1.862c.182 3.458 1.577 4.488 3.561 4.488 1.5 0 2.897-.758 3.609-1.709a3.31 3.31 0 0 0 .741-1.997v-.004c-.019-.449-.159-.805-.394-.989z"></path>
  <path fill="#00B871" d="M15.93 22.589c.094.776.394 1.105.797 1.105h.001a.757.757 0 0 0 .411-.128c.216-.146.44-.384.731-.731a31.629 31.629 0 0 0 3.281-5.099c1.228-2.376 1.894-3.618 2.325-4.477.194-.39.375-.663.565-.88a1.47 1.47 0 0 0-.987-.5l-.169-.009c-.778 0-1.162.393-1.659 1.389-.431.859-1.097 2.102-2.325 4.477a31.682 31.682 0 0 1-2.981 4.699c.005.051.003.108.01.154zm12.148-1.398c.234 0 .6-.091.891-.274.082-.053.169-.117.254-.177.008-.08.024-.157.027-.238v-.004c-.019-.448-.159-.804-.394-.987v-.001a.623.623 0 0 0-.259-.127l-.004-.001c-.381.378-.826.764-1.264 1.098.126.445.353.711.749.711zm-16.31.33.021-.161c.128-.816.292-1.62.448-2.215l.15-.667c-.731.484-1.303.813-2.1.74a1.578 1.578 0 0 1-.303-.062 24.12 24.12 0 0 0-.446 2.203l-.021.161c-.431 3.837 1.378 5.729 3.506 5.729.356 0 .712-.046 1.059-.137.051-.013.102-.032.154-.046-1.632-.533-2.827-2.357-2.468-5.545zm11.821-1.802a17.257 17.257 0 0 1 .008-1.862c-.668 1.513-1.31 2.812-1.933 3.918.55 1.827 1.72 2.433 3.236 2.433.385 0 .762-.051 1.123-.141-1.371-.379-2.289-1.59-2.434-4.348zM9.002 17.638c3.112-1.983 5.062-5.811 5.381-6.579.264-.623.536-1.09.816-1.344-.269-.292-.634-.465-1.125-.465h-.028c-.384 0-.703.146-1.012.384-.309.228-.609.74-.9 1.425-.319.768-2.269 4.596-5.381 6.579-.037.74.394 1.49 1.284 1.581.545.05.986-.097 1.444-.344-.342-.308-.502-.774-.479-1.237z"></path>
  <path d="M13.023 28a3.975 3.975 0 0 1-3.003-1.335c-.744-.832-1.564-2.415-1.248-5.228l.021-.172c.076-.481.163-.958.255-1.396-.33.093-.684.132-1.081.096-1.205-.124-2.027-1.119-1.965-2.365a.754.754 0 0 1 .346-.596c2.828-1.801 4.735-5.374 5.092-6.232.378-.891.741-1.442 1.147-1.742.46-.354.94-.53 1.457-.53 1.002 0 1.558.464 1.854.853.723.952.774 2.562.153 4.787-.996 3.56-1.659 6.252-1.659 7.82 0 .203.01.378.03.528.026.218.066.346.096.417.165-.128.365-.357.526-.551a30.913 30.913 0 0 0 3.19-4.963 597.661 597.661 0 0 1 1.395-2.68c.406-.777.698-1.336.925-1.788.456-.912 1.011-1.803 2.33-1.803l.212.011c1.138.098 2.468.926 2.47 4.328l-.002.449c0 1.364.055 2.713.158 3.9.043.534.151.66.152.662.036-.03.266-.077.444-.189.535-.345 1.191-.883 1.746-1.433a.755.755 0 0 1 .71-.195c.192.044.386.138.549.269.407.322.647.87.675 1.544a4.107 4.107 0 0 1-.907 2.505c-.897 1.197-2.55 1.985-4.191 1.985-2.389 0-3.767-1.315-4.189-4.012-2.154 4.182-4.192 6.342-6.449 6.896-.397.105-.818.16-1.239.16zm-2.886-10.271a.75.75 0 0 1 .732.915l-.15.667c-.158.608-.316 1.39-.438 2.167l-.018.139c-.197 1.753.114 3.195.878 4.05.679.761 1.747.985 2.753.722 2.198-.54 4.346-3.347 6.769-8.833a.747.747 0 0 1 .865-.426.747.747 0 0 1 .569.777 16.95 16.95 0 0 0-.007 1.774c.174 3.318 1.454 3.776 2.812 3.776 1.35 0 2.483-.707 3.01-1.408.374-.462.572-.991.59-1.556-.464.406-.947.779-1.375 1.055-.383.24-.889.394-1.297.394-.537 0-1.46-.261-1.601-2.006a47.78 47.78 0 0 1-.163-4.026l.002-.454c-.001-1.245-.188-2.751-1.077-2.827l-.147-.008c-.259.001-.459.001-.945.975-.229.459-.526 1.025-.938 1.812-.362.693-.814 1.56-1.392 2.676a32.497 32.497 0 0 1-3.358 5.219c-.328.393-.6.685-.901.888a1.5 1.5 0 0 1-.815.257h-.001c-.414 0-1.364-.173-1.556-1.767a5.359 5.359 0 0 1-.043-.692c0-1.766.686-4.572 1.714-8.251.683-2.444.247-3.278.097-3.477-.095-.122-.249-.261-.633-.261-.155 0-.321.027-.583.229-.074.055-.305.271-.667 1.124-.462 1.113-2.391 4.626-5.281 6.658a.622.622 0 0 0 .571.462c.499.045.892-.144 1.609-.619a.755.755 0 0 1 .415-.125z"></path>
</svg>
